<svg width="10" height="17" viewBox="0 0 10 17" fill="none" xmlns="http://www.w3.org/2000/svg">
<path d="M6.86087 4.28728C6.85054 4.89054 6.8587 5.49326 6.8587 6.11774C6.94464 6.12154 7.0159 6.12807 7.08771 6.12807C7.79324 6.12862 8.49931 6.12753 9.20538 6.12862C9.63294 6.1297 9.73847 6.23469 9.73902 6.65463C9.7401 7.46243 9.74065 8.27022 9.73902 9.07802C9.73793 9.45227 9.64491 9.54692 9.26848 9.54855C8.54881 9.55182 7.82968 9.54964 7.11001 9.54964H6.85978V16.1763C6.85978 16.7752 6.80103 16.8329 6.19233 16.8329C5.41826 16.8329 4.64474 16.8334 3.87121 16.8323C3.44148 16.8318 3.34193 16.7333 3.34139 16.3068C3.34084 14.1554 3.34139 12.0035 3.34139 9.85154V9.58718C3.2587 9.58228 3.18744 9.57466 3.11618 9.57466C2.52598 9.57358 1.93523 9.57521 1.34502 9.57358C0.93541 9.57194 0.836407 9.47675 0.83532 9.07095C0.832056 8.27675 0.8326 7.48256 0.834776 6.68836C0.835864 6.26624 0.93269 6.17159 1.34992 6.17105C1.93359 6.1705 2.51727 6.17105 3.10095 6.17105H3.34139C3.34139 6.07041 3.3403 5.99099 3.34139 5.91157C3.35553 5.13805 3.32779 4.36126 3.39306 3.59263C3.55843 1.65773 5.04619 0.257007 6.99034 0.184115C7.80357 0.153653 8.61844 0.17106 9.4333 0.173236C9.70257 0.174324 9.81789 0.290733 9.81952 0.56163C9.82387 1.36943 9.82387 2.17722 9.81952 2.98501C9.81789 3.25972 9.70475 3.36851 9.40991 3.37559C8.8605 3.38864 8.31055 3.38918 7.76114 3.39734C7.12361 3.40714 6.87229 3.64811 6.86087 4.28728Z" fill="#555555"/>
</svg>
