<svg width="18" height="17" viewBox="0 0 18 17" fill="none" xmlns="http://www.w3.org/2000/svg">
<path d="M17.3303 4.80981C17.3189 3.0135 16.5179 1.65046 14.9682 0.743135C14.2863 0.343682 13.5326 0.170858 12.7423 0.17045C10.2473 0.168412 7.7524 0.162298 5.25744 0.17208C3.22675 0.179825 1.5303 1.41935 0.887914 3.35507C0.79335 3.64039 0.758703 3.9461 0.696747 4.24243C0.685742 4.29501 0.676775 4.348 0.666992 4.40058V12.6024C0.711829 12.8519 0.736285 13.107 0.804355 13.35C1.3212 15.1948 2.51997 16.3279 4.38884 16.7502C4.55636 16.7881 4.72878 16.806 4.89875 16.8334H13.1022C13.3521 16.7885 13.6072 16.7641 13.8506 16.696C15.6934 16.18 16.8298 14.9832 17.2455 13.1164C17.3124 12.8176 17.3295 12.503 17.3303 12.1956C17.3368 9.73369 17.3458 7.27175 17.3303 4.80981ZM9.00782 13.0687C6.4986 13.083 4.43123 11.0189 4.43245 8.50068C4.43367 5.98494 6.46722 3.94854 8.99315 3.93428C11.5024 3.92001 13.5697 5.98372 13.5685 8.5019C13.5673 11.0176 11.5338 13.054 9.00782 13.0687ZM13.8441 5.04663C13.09 5.04419 12.4558 4.40914 12.4562 3.6567C12.4562 2.90181 13.0884 2.27247 13.8461 2.27329C14.6079 2.27369 15.232 2.89855 15.2299 3.65914C15.2283 4.41729 14.5973 5.04908 13.8441 5.04663Z" fill="#555555"/>
<path d="M0.666992 12.6027C0.711829 12.8522 0.736285 13.1073 0.804355 13.3503C1.3212 15.1951 2.51997 16.3282 4.38884 16.7505C4.55636 16.7884 4.72878 16.8064 4.89875 16.8337C3.48803 16.8337 2.07731 16.8337 0.666992 16.8337C0.666992 15.4234 0.666992 14.013 0.666992 12.6027Z" fill="white"/>
<path d="M12.5843 8.50938C12.5778 10.4912 10.9604 12.0975 8.98519 12.0845C7.00667 12.0714 5.41049 10.4655 5.41701 8.49389C5.42353 6.51252 7.04132 4.90533 9.01657 4.91878C10.9951 4.93183 12.5909 6.53779 12.5843 8.50938Z" fill="#555555"/>
<path d="M14.245 3.65555C14.2458 3.87484 14.0604 4.06152 13.8435 4.0603C13.6287 4.05908 13.4392 3.86587 13.4424 3.65147C13.4461 3.44074 13.6271 3.26058 13.839 3.25772C14.0612 3.25487 14.2442 3.43422 14.245 3.65555Z" fill="#555555"/>
</svg>
