<svg width="21" height="21" viewBox="0 0 21 21" fill="none" xmlns="http://www.w3.org/2000/svg">
<path d="M10.5 0C8.4233 0 6.39323 0.615814 4.66652 1.76957C2.9398 2.92332 1.59399 4.5632 0.799269 6.48182C0.00454947 8.40045 -0.203385 10.5116 0.201759 12.5484C0.606904 14.5852 1.60693 16.4562 3.07538 17.9246C4.54383 19.3931 6.41475 20.3931 8.45156 20.7982C10.4884 21.2034 12.5996 20.9954 14.5182 20.2007C16.4368 19.406 18.0767 18.0602 19.2304 16.3335C20.3842 14.6068 21 12.5767 21 10.5C21 7.71523 19.8938 5.04451 17.9246 3.07538C15.9555 1.10625 13.2848 0 10.5 0ZM16.0853 11.1712L7.08525 15.6712C6.97088 15.7284 6.8438 15.7554 6.71607 15.7496C6.58835 15.7438 6.46422 15.7055 6.35548 15.6382C6.24674 15.5709 6.157 15.477 6.09479 15.3653C6.03257 15.2536 5.99994 15.1279 6 15V6C6.00007 5.87221 6.03279 5.74655 6.09506 5.63495C6.15733 5.52336 6.24708 5.42952 6.3558 5.36235C6.46452 5.29518 6.58859 5.25691 6.71626 5.25116C6.84392 5.24541 6.97094 5.27238 7.08525 5.3295L16.0853 9.8295C16.2097 9.89185 16.3143 9.98759 16.3874 10.106C16.4605 10.2244 16.4992 10.3608 16.4992 10.5C16.4992 10.6392 16.4605 10.7756 16.3874 10.894C16.3143 11.0124 16.2097 11.1081 16.0853 11.1705" fill="white"/>
</svg>
