<svg width="20" height="20" viewBox="0 0 20 20" fill="none" xmlns="http://www.w3.org/2000/svg">
<path d="M11.7698 0.820495L13.4452 4.17147C13.5665 4.41224 13.744 4.62021 13.9628 4.77772C14.1815 4.93523 14.4351 5.03763 14.7019 5.07623L18.4047 5.61238C18.7115 5.65973 18.9992 5.79141 19.2356 5.99274C19.472 6.19406 19.6477 6.45711 19.7433 6.75253C19.8389 7.04794 19.8505 7.3641 19.7769 7.66573C19.7032 7.96736 19.5472 8.24259 19.3262 8.46071L16.6454 11.0745C16.4633 11.2692 16.3303 11.5045 16.2575 11.761C16.1846 12.0174 16.174 12.2875 16.2265 12.5489L16.8465 16.235C16.8954 16.5401 16.859 16.8528 16.7412 17.1386C16.6235 17.4243 16.429 17.6719 16.1793 17.854C15.9296 18.0361 15.6344 18.1455 15.3263 18.1703C15.0183 18.195 14.7094 18.1341 14.4338 17.9942L11.0828 16.3187C10.8425 16.1925 10.5751 16.1266 10.3037 16.1266C10.0323 16.1266 9.76491 16.1925 9.52461 16.3187L6.17364 17.9942C5.89806 18.1341 5.58916 18.195 5.28111 18.1703C4.97306 18.1455 4.67786 18.0361 4.42815 17.854C4.17844 17.6719 3.98395 17.4243 3.8662 17.1386C3.74845 16.8528 3.71202 16.5401 3.76094 16.235L4.49815 12.5489C4.54211 12.2822 4.52088 12.0088 4.43627 11.752C4.35166 11.4953 4.20618 11.2628 4.01226 11.0745L1.33148 8.46071C1.11051 8.24259 0.954488 7.96736 0.880833 7.66573C0.807178 7.3641 0.818787 7.04794 0.914362 6.75253C1.00994 6.45711 1.18572 6.19406 1.42209 5.99274C1.65847 5.79141 1.94614 5.65973 2.253 5.61238L5.95582 5.07623C6.22261 5.03763 6.47615 4.93523 6.69492 4.77772C6.91368 4.62021 7.09121 4.41224 7.21243 4.17147L8.88792 0.820495C9.03627 0.570475 9.24713 0.363359 9.49976 0.219502C9.7524 0.0756456 10.0381 0 10.3288 0C10.6196 0 10.9053 0.0756456 11.1579 0.219502C11.4105 0.363359 11.6214 0.570475 11.7698 0.820495Z" fill="#F6B40A"/>
</svg>
