<svg width="20" height="19" viewBox="0 0 20 19" fill="none" xmlns="http://www.w3.org/2000/svg">
<path d="M10.2791 1.66012L11.937 4.97599C12.1765 5.45768 12.5295 5.8739 12.9656 6.18873C13.4018 6.50356 13.9079 6.70757 14.4405 6.78314L18.088 7.31368L15.4021 9.88347C15.0187 10.2595 14.7324 10.7231 14.5678 11.2342C14.4032 11.7454 14.3652 12.2889 14.4571 12.818L15.0871 16.4489L11.7712 14.791C11.2957 14.5412 10.7665 14.4107 10.2294 14.4107C9.69219 14.4107 9.16306 14.5412 8.68749 14.791L5.37162 16.4489L6.00164 12.8014C6.10341 12.2829 6.07978 11.7475 5.9327 11.2399C5.78562 10.7323 5.51935 10.2673 5.15609 9.88347L2.50339 7.31368L6.15085 6.78314C6.67751 6.70254 7.17699 6.49622 7.607 6.18164C8.03701 5.86707 8.38488 5.45352 8.62117 4.97599L10.2791 1.66012ZM10.2791 0.00218842C9.9712 0.00465592 9.67006 0.0928225 9.40944 0.256808C9.14882 0.420793 8.93902 0.654117 8.80354 0.930631L7.14561 4.2465C7.02565 4.48475 6.84998 4.69054 6.63351 4.8464C6.41704 5.00226 6.16616 5.10359 5.90216 5.14178L2.23813 5.67232C1.93448 5.71917 1.64982 5.84947 1.41592 6.04869C1.18203 6.24791 1.00808 6.5082 0.913509 6.80052C0.818935 7.09284 0.807449 7.40569 0.880332 7.70416C0.953216 8.00263 1.1076 8.27498 1.32626 8.49081L3.97896 11.0772C4.16791 11.2652 4.30876 11.4959 4.38957 11.7499C4.47038 12.0039 4.48877 12.2736 4.44318 12.5362L3.82974 16.1836C3.7883 16.4237 3.80028 16.67 3.86482 16.9049C3.92937 17.1398 4.0449 17.3576 4.2032 17.5428C4.36149 17.728 4.55865 17.8761 4.78066 17.9764C5.00267 18.0768 5.24407 18.127 5.48768 18.1234C5.75419 18.1194 6.0158 18.0511 6.25033 17.9245L9.56619 16.2665C9.80187 16.1444 10.0634 16.0807 10.3288 16.0807C10.5943 16.0807 10.8558 16.1444 11.0915 16.2665L14.4074 17.9245C14.6419 18.0511 14.9035 18.1194 15.17 18.1234C15.4136 18.127 15.655 18.0768 15.877 17.9764C16.099 17.8761 16.2962 17.728 16.4545 17.5428C16.6128 17.3576 16.7283 17.1398 16.7929 16.9049C16.8574 16.67 16.8694 16.4237 16.8279 16.1836L16.2145 12.5362C16.1689 12.2736 16.1873 12.0039 16.2681 11.7499C16.3489 11.4959 16.4898 11.2652 16.6787 11.0772L19.3314 8.49081C19.5501 8.27498 19.7045 8.00263 19.7774 7.70416C19.8502 7.40569 19.8387 7.09284 19.7442 6.80052C19.6496 6.5082 19.4757 6.24791 19.2418 6.04869C19.0079 5.84947 18.7232 5.71917 18.4196 5.67232L14.7555 5.14178C14.4915 5.10359 14.2406 5.00226 14.0242 4.8464C13.8077 4.69054 13.632 4.48475 13.5121 4.2465L11.8541 0.930631C11.7115 0.638509 11.4862 0.394753 11.2062 0.229678C10.9261 0.0646033 10.6037 -0.0145062 10.2791 0.00218842Z" fill="#F6B40A"/>
</svg>
