<svg width="17" height="17" viewBox="0 0 17 17" fill="none" xmlns="http://www.w3.org/2000/svg">
<path d="M15.9864 15.4615C14.1309 12.754 12.2738 10.0475 10.4174 7.34062C10.3932 7.30536 10.3709 7.26865 10.3407 7.22181C10.6659 6.84276 10.9894 6.46533 11.3133 6.08809C12.9966 4.12755 14.6801 2.16683 16.3634 0.206111C16.3739 0.193814 16.3822 0.179889 16.3916 0.166687H14.9621C13.2149 2.20119 11.4676 4.23588 9.6926 6.30275C9.67126 6.26424 9.65607 6.23114 9.63581 6.20166C8.27279 4.21345 6.9094 2.22561 5.54637 0.237397C5.53136 0.215334 5.52069 0.190378 5.50785 0.166687H0.666992C0.708948 0.235408 0.747649 0.306299 0.793041 0.372489C2.83894 3.35679 4.88538 6.34073 6.93182 9.32485C6.95316 9.35596 6.9736 9.38779 7.00344 9.43282C6.83724 9.62777 6.67014 9.82471 6.50177 10.0207C4.59928 12.2363 2.69661 14.4516 0.794307 16.6673C0.749096 16.7201 0.70931 16.7778 0.666992 16.8334H2.09657C2.744 16.0758 3.39015 15.3172 4.03885 14.5607C5.19209 13.2157 6.34697 11.8719 7.50112 10.5278C7.54326 10.4786 7.58666 10.4307 7.63694 10.3734C7.66949 10.4128 7.69842 10.4432 7.72193 10.4774C9.15278 12.5634 10.5833 14.6497 12.0136 16.7362C12.0347 16.7672 12.0517 16.801 12.0707 16.8334H16.9114C16.6032 16.376 16.2981 15.9165 15.9864 15.4615ZM14.768 15.7973C14.151 15.7978 13.5339 15.7946 12.9169 15.8004C12.802 15.8013 12.7313 15.7685 12.6642 15.6725C9.35008 10.9177 6.0332 6.16459 2.71687 1.41126C2.68631 1.3675 2.65846 1.32174 2.60963 1.24687C3.21492 1.24687 3.78856 1.26966 4.3593 1.23819C4.69694 1.21957 4.88303 1.33838 5.07418 1.61363C8.31257 6.27599 11.5638 10.9295 14.8121 15.585C14.8543 15.6454 14.895 15.7067 14.9503 15.7877C14.8709 15.7921 14.8196 15.7971 14.768 15.7973Z" fill="#555555"/>
</svg>
