<svg width="20" height="14" viewBox="0 0 20 14" fill="none" xmlns="http://www.w3.org/2000/svg">
<path d="M18.8681 3.22932C18.6677 2.12185 17.9908 1.41093 16.9326 1.21738C16.4959 1.13722 16.0513 1.07881 15.6078 1.05877C13.727 0.97373 11.8453 0.907018 9.96395 0.833435C9.96337 0.852905 9.9628 0.872374 9.96223 0.891843C9.52961 0.891843 9.0967 0.885545 8.66436 0.892989C6.87059 0.923052 5.07654 0.942808 3.29222 1.16556C2.18246 1.30385 1.41371 1.96381 1.18265 3.06097C1.05352 3.67368 0.983089 4.30186 0.932125 4.92689C0.823039 6.26369 0.796125 7.6048 0.891182 8.94361C0.950163 9.77163 1.02575 10.6022 1.16347 11.4202C1.34413 12.4916 2.08254 13.2 3.12215 13.3543C3.73773 13.4456 4.35932 13.5235 4.98063 13.5438C6.88777 13.6057 8.79607 13.6629 10.7041 13.6724C12.6061 13.6821 14.5089 13.6369 16.4035 13.4379C16.8919 13.3864 17.3732 13.3085 17.8001 13.0351C18.5062 12.583 18.8274 11.9035 18.9044 11.1056C19.0084 10.0259 19.1137 8.94361 19.1492 7.86048C19.2005 6.31065 19.1449 4.7614 18.8681 3.22932ZM8.18679 10.0184V4.54552C9.77526 5.45858 11.3471 6.36219 12.9468 7.28183C11.3494 8.20033 9.77784 9.10366 8.18679 10.0184Z" fill="#555555"/>
</svg>
